<svg width="49" height="8" viewBox="0 0 49 8" fill="none" xmlns="http://www.w3.org/2000/svg">
<path d="M0.695312 8V-2.38419e-07H2.38672V6.60547H5.81641V8H0.695312ZM9.28662 1.59766C9.02165 1.59766 8.79606 1.69076 8.60986 1.87695C8.42008 2.06673 8.3252 2.29232 8.3252 2.55371V5.76025C8.3252 6.02523 8.42008 6.25081 8.60986 6.43701C8.79606 6.62679 9.02165 6.72168 9.28662 6.72168H17.6118C17.8768 6.72168 18.1042 6.62679 18.2939 6.43701C18.4801 6.25081 18.5732 6.02523 18.5732 5.76025V2.55371C18.5732 2.29232 18.4801 2.06673 18.2939 1.87695C18.1042 1.69076 17.8768 1.59766 17.6118 1.59766H9.28662ZM9.28662 8C8.67074 8 8.14258 7.78158 7.70215 7.34473C7.2653 6.9043 7.04688 6.37614 7.04688 5.76025V2.55371C7.04688 1.93783 7.2653 1.41146 7.70215 0.974609C8.14258 0.53418 8.67074 0.313965 9.28662 0.313965H17.6118C18.2313 0.313965 18.7594 0.53418 19.1963 0.974609C19.6367 1.41146 19.8569 1.93783 19.8569 2.55371V5.76025C19.8569 6.37614 19.6367 6.9043 19.1963 7.34473C18.7594 7.78158 18.2313 8 17.6118 8H9.28662ZM23.7134 8C23.0975 8 22.5693 7.78158 22.1289 7.34473C21.6921 6.9043 21.4736 6.37614 21.4736 5.76025V2.55371C21.4736 1.93783 21.6921 1.41146 22.1289 0.974609C22.5693 0.53418 23.0975 0.313965 23.7134 0.313965H32.3608C32.8908 0.313965 33.3438 0.501953 33.7197 0.87793C34.0957 1.25391 34.2837 1.70687 34.2837 2.23682H33C33 2.06136 32.9373 1.91097 32.812 1.78564C32.6867 1.66032 32.5363 1.59766 32.3608 1.59766H23.7134C23.4484 1.59766 23.2228 1.69076 23.0366 1.87695C22.8468 2.06673 22.752 2.29232 22.752 2.55371V5.76025C22.752 6.02523 22.8468 6.25081 23.0366 6.43701C23.2228 6.62679 23.4484 6.72168 23.7134 6.72168H32.0386C32.3035 6.72168 32.5309 6.62679 32.7207 6.43701C32.9069 6.25081 33 6.02523 33 5.76025V4.79883H29.1597V3.51514H34.2837V5.76025C34.2837 6.37614 34.0635 6.9043 33.623 7.34473C33.1862 7.78158 32.658 8 32.0386 8H23.7134ZM38.1401 1.59766C37.8752 1.59766 37.6496 1.69076 37.4634 1.87695C37.2736 2.06673 37.1787 2.29232 37.1787 2.55371V5.76025C37.1787 6.02523 37.2736 6.25081 37.4634 6.43701C37.6496 6.62679 37.8752 6.72168 38.1401 6.72168H46.4653C46.7303 6.72168 46.9577 6.62679 47.1475 6.43701C47.3337 6.25081 47.4268 6.02523 47.4268 5.76025V2.55371C47.4268 2.29232 47.3337 2.06673 47.1475 1.87695C46.9577 1.69076 46.7303 1.59766 46.4653 1.59766H38.1401ZM38.1401 8C37.5243 8 36.9961 7.78158 36.5557 7.34473C36.1188 6.9043 35.9004 6.37614 35.9004 5.76025V2.55371C35.9004 1.93783 36.1188 1.41146 36.5557 0.974609C36.9961 0.53418 37.5243 0.313965 38.1401 0.313965H46.4653C47.0848 0.313965 47.613 0.53418 48.0498 0.974609C48.4902 1.41146 48.7104 1.93783 48.7104 2.55371V5.76025C48.7104 6.37614 48.4902 6.9043 48.0498 7.34473C47.613 7.78158 47.0848 8 46.4653 8H38.1401Z" fill="#40C335"/>
</svg>
