<?xml version="1.0" encoding="utf-8"?>
<svg width="76.000244px" height="21.02002px" viewBox="0 0 76.000244 21.02002" version="1.1" xmlns:xlink="http://www.w3.org/1999/xlink" xmlns="http://www.w3.org/2000/svg">
  <g id="3-stars">
    <path d="M10 0L13.09 6.26L20 7.27L15 12.14L16.18 19.02L10 15.77L3.82 19.02L5 12.14L0 7.27L6.91 6.26L10 0L10 0Z" id="Polygon-Copy-11" fill="none" fill-rule="evenodd" stroke="#5E43C2" stroke-width="2" stroke-linecap="round" stroke-linejoin="round" />
    <path d="M37.0001 0L40.0901 6.26L47.0001 7.27L42.0001 12.14L43.1801 19.02L37.0001 15.77L30.8201 19.02L32.0001 12.14L27.0001 7.27L33.9101 6.26L37.0001 0L37.0001 0Z" id="Polygon-Copy-12" fill="none" fill-rule="evenodd" stroke="#5E43C2" stroke-width="2" stroke-linecap="round" stroke-linejoin="round" />
    <path d="M64.0002 0L67.0902 6.26L74.0002 7.27L69.0002 12.14L70.1802 19.02L64.0002 15.77L57.8202 19.02L59.0002 12.14L54.0002 7.27L60.9102 6.26L64.0002 0L64.0002 0Z" id="Polygon-Copy-13" fill="none" fill-rule="evenodd" stroke="#5E43C2" stroke-width="2" stroke-linecap="round" stroke-linejoin="round" />
  </g>
</svg>