<?xml version="1.0" encoding="utf-8"?>
<svg width="120.500244px" height="21.04004px" viewBox="0 0 120.500244 21.04004" version="1.1" xmlns:xlink="http://www.w3.org/1999/xlink" xmlns="http://www.w3.org/2000/svg">
  <g id="4-12-stars">
    <g id="Group" transform="translate(108.500244 0.020019531)">
      <path d="M10 15.8L3.8 19" id="Line" fill="none" fill-rule="evenodd" stroke="#5E43C2" stroke-width="2" stroke-linecap="round" stroke-linejoin="round" />
      <path d="M3.8 19L5 12.1" id="Line" fill="none" fill-rule="evenodd" stroke="#5E43C2" stroke-width="2" stroke-linecap="round" stroke-linejoin="round" />
      <path d="M5 12.1L0 7.3" id="Line" fill="none" fill-rule="evenodd" stroke="#5E43C2" stroke-width="2" stroke-linecap="round" stroke-linejoin="round" />
      <path d="M0 7.3L7 6.3" id="Line" fill="none" fill-rule="evenodd" stroke="#5E43C2" stroke-width="2" stroke-linecap="round" stroke-linejoin="round" />
      <path d="M7 6.3L10 0" id="Line" fill="none" fill-rule="evenodd" stroke="#5E43C2" stroke-width="2" stroke-linecap="round" stroke-linejoin="round" />
    </g>
    <path d="M91.0002 0L94.0902 6.26L101 7.27L96.0002 12.14L97.1802 19.02L91.0002 15.77L84.8202 19.02L86.0002 12.14L81.0002 7.27L87.9102 6.26L91.0002 0L91.0002 0Z" id="Polygon-Copy-6" fill="none" fill-rule="evenodd" stroke="#5E43C2" stroke-width="2" stroke-linecap="round" stroke-linejoin="round" />
    <path d="M10 0.0200195L13.09 6.28002L20 7.29002L15 12.16L16.18 19.04L10 15.79L3.82 19.04L5 12.16L0 7.29002L6.91 6.28002L10 0.0200195L10 0.0200195Z" id="Polygon-Copy" fill="none" fill-rule="evenodd" stroke="#5E43C2" stroke-width="2" stroke-linecap="round" stroke-linejoin="round" />
    <path d="M37.0001 0.0200195L40.0901 6.28002L47.0001 7.29002L42.0001 12.16L43.1801 19.04L37.0001 15.79L30.8201 19.04L32.0001 12.16L27.0001 7.29002L33.9101 6.28002L37.0001 0.0200195L37.0001 0.0200195Z" id="Polygon-Copy-2" fill="none" fill-rule="evenodd" stroke="#5E43C2" stroke-width="2" stroke-linecap="round" stroke-linejoin="round" />
    <path d="M64.0002 0.0200195L67.0902 6.28002L74.0002 7.29002L69.0002 12.16L70.1802 19.04L64.0002 15.79L57.8202 19.04L59.0002 12.16L54.0002 7.29002L60.9102 6.28002L64.0002 0.0200195L64.0002 0.0200195Z" id="Polygon-Copy-3" fill="none" fill-rule="evenodd" stroke="#5E43C2" stroke-width="2" stroke-linecap="round" stroke-linejoin="round" />
  </g>
</svg>