<?xml version="1.0" encoding="utf-8"?>
<svg width="37.23047px" height="20px" viewBox="0 0 37.23047 20" version="1.1" xmlns:xlink="http://www.w3.org/1999/xlink"
  xmlns="http://www.w3.org/2000/svg">
  <g id="signature">
    <g id="Lucia-g" fill="rgba(0,0,0,0.51)">
      <path
        d="M4.03711 12.9961Q4.34766 13.0957 4.69922 13.1953Q5.32031 13.3535 5.96777 13.4238Q6.61523 13.4941 7.04883 13.4297Q7.30664 13.377 7.4502 13.292Q7.59375 13.207 7.66992 13.1367Q7.75781 13.0488 7.83398 13.043Q7.95117 13.0547 8.03613 13.2627Q8.12109 13.4707 8.05078 13.8047Q7.96875 14.1445 7.64941 14.4844Q7.33008 14.8242 6.77344 14.9648Q6.19336 15.0879 5.46094 14.959Q4.72852 14.8301 4.05469 14.5488Q3.4043 14.2617 2.90039 13.9512Q2.37305 13.6348 1.95117 13.4824Q1.4707 13.3594 1.16016 13.4004Q0.931641 13.4238 0.873047 13.3594Q0.820313 13.2656 0.987305 13.0459Q1.1543 12.8262 1.43555 12.6563Q1.69336 12.5156 2.00391 12.4805Q1.97461 12.3809 1.95117 12.2637Q1.86328 11.7539 2.18555 10.6875Q2.56055 9.5332 3.22559 8.07422Q3.89062 6.61523 4.41797 5.60156Q4.98633 4.52344 5.15625 4.27148Q5.2207 4.17188 5.25 4.11621Q5.2793 4.06055 5.28516 4.01953Q5.35547 3.78516 4.93359 3.78516Q4.4707 3.79102 3.67969 4.25977Q3.29297 4.5 2.93262 4.86035Q2.57227 5.2207 2.34961 5.66602Q2.20898 5.95313 2.13574 6.24609Q2.0625 6.53906 2.01563 6.78516Q1.96875 7.06641 1.91016 7.23633Q1.75781 7.68164 1.27734 7.08984Q1.00195 6.79688 0.791016 6.31055Q0.580078 5.82422 0.779297 5.25Q1.03125 4.66992 1.70215 4.13086Q2.37305 3.5918 3.15234 3.26367Q3.91406 2.95898 4.58203 2.91797Q5.25 2.87695 5.74805 3.04102Q6.24609 3.2168 6.5332 3.49512Q6.82031 3.77344 6.89648 4.00195Q6.9375 4.13672 6.89063 4.26855Q6.84375 4.40039 6.70898 4.64063Q6.55664 4.91016 6.29883 5.44922Q5.92969 6.26367 5.45801 7.4707Q4.98633 8.67773 4.60547 9.72656Q3.90234 11.6426 3.89063 12.2871Q3.88477 12.5215 3.92871 12.6826Q3.97266 12.8438 4.01953 12.9492L4.03711 12.9961ZM8.83008 11.8887Q8.5957 11.5137 8.58984 10.8633Q8.39648 11.2266 8.19727 11.543Q7.79297 12.1348 7.42676 12.3193Q7.06055 12.5039 6.73242 12.375Q6.38672 12.2578 6.14355 11.8711Q5.90039 11.4844 5.90039 10.8105Q5.92969 10.1016 6.16992 9.27832Q6.41016 8.45508 6.66797 7.89844Q6.90234 7.38867 7.08691 7.23633Q7.27148 7.08399 7.47656 7.10156Q7.69336 7.10156 7.91602 7.16602Q8.13867 7.23047 8.2793 7.33008Q8.45508 7.44141 8.46387 7.52051Q8.47266 7.59961 8.36719 7.79297Q8.21484 8.04492 7.95703 8.85352Q7.75781 9.52148 7.65234 9.90527Q7.54688 10.2891 7.5 10.5293Q7.45313 10.7695 7.44141 11.0039Q7.41797 11.7422 7.95703 10.9277Q8.2207 10.4941 8.51953 9.86426Q8.81836 9.23438 9.01758 8.77148Q9.03516 8.72461 9.05273 8.68359Q9.20508 8.25 9.35742 7.91602Q9.5918 7.40625 9.77637 7.25391Q9.96094 7.10156 10.1602 7.11328Q10.377 7.11914 10.6025 7.18359Q10.8281 7.24805 10.9688 7.34766Q11.2148 7.50586 11.2266 7.60547Q11.2383 7.70508 11.1035 7.9043Q10.9277 8.15039 10.6465 8.86523Q10.4766 9.36328 10.3213 9.99023Q10.166 10.6172 10.1309 11.0215Q10.1133 11.3848 10.2305 11.4023Q10.3477 11.4199 10.5176 11.209Q10.6699 10.998 10.8105 10.6934Q10.9512 10.3887 11.0449 10.1426Q11.0742 10.0723 11.0977 10.0078Q11.1563 9.84961 11.2002 9.76465Q11.2441 9.67969 11.3086 9.63867Q11.3672 9.60352 11.4316 9.60938Q11.4961 9.61523 11.5313 9.70313Q11.5664 9.79102 11.5371 10.002Q11.4844 10.3477 11.2734 10.8779Q11.0625 11.4082 10.752 11.8301Q10.1191 12.627 9.41602 12.3926Q9.07617 12.2754 8.83008 11.8887ZM13.2422 12.4277Q12.5625 12.4277 11.959 12.082Q11.4141 11.7773 11.1914 11.1211Q11.1035 10.7988 11.1035 10.4297Q11.1035 10.0195 11.2646 9.35156Q11.4258 8.68359 11.8711 8.00977Q12.3105 7.37695 12.8525 7.08691Q13.3945 6.79688 13.916 6.75586Q14.0566 6.74414 14.1914 6.74414Q14.543 6.74414 14.8916 6.84961Q15.2402 6.95508 15.4688 7.20117Q15.7324 7.49414 15.7324 7.89844Q15.7324 8.13281 15.6504 8.36719Q15.5332 8.67773 15.3164 8.90625Q15.0586 9.18164 14.7715 9.18164Q14.5605 9.18164 14.376 9.05273Q14.1914 8.92383 14.1621 8.77734L14.1621 8.76563Q14.1621 8.69531 14.2266 8.63379Q14.291 8.57227 14.3906 8.50195Q14.7656 8.26758 14.8477 7.92773Q14.8652 7.86328 14.8652 7.80469Q14.8652 7.66992 14.7773 7.57031Q14.6367 7.42969 14.3496 7.42969Q13.5234 7.42969 13.1426 8.9707Q12.9258 9.75 12.9258 10.4121Q12.9258 11.4316 13.5469 11.5781Q13.6289 11.5898 13.7109 11.5898Q14.1855 11.5898 14.7188 11.1211Q15.1113 10.7344 15.3984 10.2949Q15.5391 10.0957 15.6504 9.96094Q15.8438 9.73242 15.9727 9.73242Q16.0371 9.73242 16.0928 9.78516Q16.1484 9.83789 16.1543 9.97852Q16.1543 10.1191 16.0254 10.3975Q15.8965 10.6758 15.6182 11.0508Q15.3398 11.4258 14.959 11.7539Q14.1914 12.4277 13.2422 12.4277ZM18.1758 6.18164Q18.0762 6.18164 17.9648 6.15234Q17.7773 6.11719 17.6133 6.02344Q17.3555 5.88867 17.3555 5.63672Q17.3555 5.43164 17.5371 5.05078Q17.6133 4.86914 17.7188 4.74023Q17.877 4.53516 18.252 4.53516Q18.6211 4.53516 18.9199 4.68164Q19.1309 4.79297 19.1309 5.00391Q19.1309 5.09766 19.0898 5.21484Q19.0254 5.41406 18.9023 5.63965Q18.7793 5.86524 18.627 6.01172Q18.416 6.18164 18.1758 6.18164ZM16.7578 12.4453Q16.1953 12.4453 15.8496 11.8887Q15.6035 11.502 15.5977 10.8223Q15.627 10.1133 15.8701 9.29297Q16.1133 8.47266 16.3711 7.91602Q16.6113 7.40625 16.793 7.25977Q16.9746 7.11328 17.1621 7.11328Q17.3906 7.11328 17.625 7.18066Q17.8594 7.24805 18.0059 7.34766Q18.2695 7.51758 18.2695 7.62305Q18.2695 7.72266 18.1465 7.9043Q17.9648 8.15039 17.6836 8.86523Q17.5078 9.36328 17.3496 9.99023Q17.1621 10.7402 17.1621 11.1094Q17.1621 11.4023 17.2852 11.4023Q17.3965 11.4023 17.5547 11.2002Q17.7129 10.998 17.8535 10.6934Q18.0352 10.2949 18.1406 10.0078Q18.1992 9.84961 18.2432 9.76465Q18.2871 9.67969 18.3574 9.63867Q18.4043 9.60938 18.4629 9.60938Q18.4688 9.60938 18.5068 9.6123Q18.5449 9.61523 18.5801 9.70313Q18.5977 9.75 18.5977 9.83789Q18.5977 10.1836 18.3223 10.875Q18.1055 11.4082 17.7949 11.8301Q17.2969 12.4453 16.7578 12.4453ZM21.5449 9.36914Q21.5625 9.10547 21.498 8.80078Q21.3926 8.38477 21.1406 8.06836Q20.8887 7.75195 20.5957 7.79883Q20.3203 7.89258 20.0947 8.34668Q19.8691 8.80078 19.7578 9.33984Q19.6582 9.86133 19.6641 10.2949Q19.6699 10.7285 19.7402 11.0156Q19.793 11.3027 19.9336 11.3379Q20.0742 11.373 20.373 11.0098Q20.6602 10.6523 21.0469 10.0723Q21.3047 9.69141 21.5449 9.36914ZM21.4629 10.8809Q21.2109 11.2734 20.9531 11.6016Q20.3672 12.3809 19.6523 12.4453Q19.2656 12.4805 18.876 12.293Q18.4863 12.1055 18.2461 11.6191Q18.0117 11.1152 18.0146 10.3799Q18.0176 9.64453 18.2754 8.88867Q18.5449 8.13867 19.0195 7.5791Q19.4941 7.01953 20.0566 6.85547Q20.6133 6.7207 21.1201 6.99023Q21.627 7.25977 21.9023 7.73438Q22.0313 7.97461 22.0957 8.2207Q22.1602 8.0625 22.2305 7.91602Q22.459 7.40625 22.6465 7.25391Q22.834 7.10156 23.0332 7.11914Q23.25 7.11914 23.4727 7.18359Q23.6953 7.24805 23.8418 7.34766Q24.082 7.51172 24.0967 7.6084Q24.1113 7.70508 23.9766 7.9043Q23.8008 8.15039 23.5195 8.86523Q23.3496 9.36328 23.1914 9.99023Q23.0332 10.6172 23.0039 11.0215Q22.9805 11.3848 23.1006 11.4023Q23.2207 11.4199 23.3906 11.209Q23.543 10.998 23.6836 10.6934Q23.8242 10.3887 23.918 10.1426Q23.9473 10.0723 23.9707 10.0137Q24.0293 9.84961 24.0732 9.76465Q24.1172 9.67969 24.1816 9.63867Q24.2402 9.60352 24.3047 9.60938Q24.3691 9.61523 24.4014 9.70313Q24.4336 9.79102 24.4102 10.002Q24.3574 10.3535 24.1436 10.8838Q23.9297 11.4141 23.625 11.8301Q22.9922 12.627 22.2891 12.3926Q21.9492 12.2754 21.7031 11.8887Q21.4746 11.5195 21.4629 10.8809ZM25.5703 9.79102Q25.5586 9.79102 25.5176 9.78809Q25.4766 9.78516 25.3975 9.65918Q25.3184 9.5332 25.2656 9.29883Q25.2363 9.16406 25.2363 9.02344Q25.2363 8.91211 25.2539 8.80078Q25.2949 8.54297 25.5469 8.33789Q25.9688 7.98633 27.4863 7.98633Q28.541 7.98633 29.5195 8.11523Q29.8066 8.15039 29.9824 8.19141Q30.293 8.27344 30.3809 8.34961Q30.4336 8.40234 30.4629 8.45508Q30.5039 8.54297 30.5273 8.88281Q30.5449 9.0293 30.5449 9.1582Q30.5449 9.60352 30.416 9.62109L30.3691 9.62695Q30.2871 9.62695 30.123 9.58594L30.0879 9.58008Q29.25 9.38086 28.2363 9.38086Q27.832 9.38086 27.3105 9.41602Q25.9863 9.49219 25.7285 9.72656Q25.6289 9.79102 25.5703 9.79102ZM34.1543 13.4238Q34.0371 13.5762 33.9141 13.7461Q33.5859 14.2148 33.3457 14.6924Q33.1055 15.1699 33.0762 15.4629Q33.0527 15.6563 33.1406 15.6738Q33.2285 15.6914 33.3984 15.4365Q33.5684 15.1816 33.8027 14.543Q33.9785 14.0273 34.1543 13.4238ZM34.9512 9.43945Q34.9688 9.1875 34.9043 8.90039Q34.7988 8.49609 34.5381 8.18848Q34.2773 7.88086 33.9844 7.92773Q33.6914 8.02148 33.4424 8.46094Q33.1934 8.90039 33.0703 9.42188Q32.9531 9.92578 32.9619 10.3447Q32.9707 10.7637 33.0586 11.0391Q33.1289 11.3203 33.2842 11.3555Q33.4395 11.3906 33.7617 11.0391Q34.0781 10.6582 34.5 10.0605Q34.7344 9.72656 34.9512 9.43945ZM34.4414 12.2227Q34.4824 12.1875 34.5234 12.1523Q34.6699 11.6133 34.8223 11.0273Q34.8281 11.0039 34.834 10.9746Q34.5996 11.3203 34.3652 11.6074Q33.7793 12.3574 33.0645 12.4219Q32.6777 12.457 32.2881 12.2754Q31.8984 12.0938 31.6523 11.625Q31.418 11.1328 31.418 10.4238Q31.418 9.71484 31.6758 8.98828Q31.9453 8.26172 32.4199 7.71973Q32.8945 7.17773 33.4512 7.01367Q34.0137 6.88477 34.5176 7.14551Q35.0215 7.40625 35.3027 7.86328Q35.4785 8.17383 35.5371 8.49609Q35.6016 8.29688 35.6602 8.14453Q35.8125 7.75781 35.9297 7.58203Q36.0469 7.40625 36.1641 7.33594Q36.5039 7.10742 36.9316 7.20117Q37.3594 7.27148 37.5234 7.33301Q37.6875 7.39453 37.6846 7.49707Q37.6816 7.59961 37.5762 7.78125Q37.4824 7.97461 37.3711 8.30859Q37.3359 8.41406 37.2891 8.58984Q37.2422 8.76563 37.1602 9.07031Q37.0488 9.48047 36.8379 10.2656Q36.6855 10.8574 36.4746 11.5488Q36.5801 11.502 36.8203 11.1738Q37.1191 10.7754 37.6641 9.81445Q37.8398 9.52734 37.998 9.50977Q38.1563 9.49219 38.2295 9.64746Q38.3027 9.80273 38.2207 10.0371Q37.7695 11.0918 37.2891 11.6514Q36.8086 12.2109 36.3691 12.3867Q36.2813 12.4219 36.1992 12.4453Q36.1641 12.5566 36.1289 12.6738Q35.6895 14.0391 35.1328 15.0176Q34.5762 15.9141 34.002 16.1807Q33.4277 16.4473 32.9707 16.3242Q32.5195 16.2188 32.3408 15.8408Q32.1621 15.4629 32.4141 14.8242Q32.7188 14.1563 33.334 13.415Q33.9492 12.6738 34.4414 12.2227Z" />
    </g>
  </g>
</svg>