<?xml version="1.0" encoding="utf-8"?>
<svg width="75px" height="22px" viewBox="0 0 75 22" version="1.1" xmlns:xlink="http://www.w3.org/1999/xlink" xmlns="http://www.w3.org/2000/svg">
  <defs>
    <path d="M75 0L75 0L75 22L0 22L0 0L75 0Z" id="path_1" />
    <path d="M0 0L51 0L51 18L0 18L0 0Z" id="path_2" />
    <clipPath id="clip_1">
      <use xlink:href="#path_1" clip-rule="evenodd" fill-rule="evenodd" />
    </clipPath>
    <clipPath id="clip_2">
      <use xlink:href="#path_2" clip-rule="evenodd" fill-rule="evenodd" />
    </clipPath>
  </defs>
  <g id="velvet-icon-group" clip-path="url(#clip_1)">
    <path d="M75 0L75 0L75 22L0 22L0 0L75 0Z" id="velvet-icon-group" fill="none" stroke="none" />
    <g id="velvet-icon" transform="translate(3 2.6674194)">
      <g id="velvet">
        <g id="velvet-logo">
          <path d="M10.7435 5.6629L10.7435 12.3929C10.7435 13.6644 9.7128 14.6951 8.44134 14.6951L2.30219 14.6951C1.67657 14.7031 1.07592 14.4501 0.644623 13.9968C2.95821 13.4348 5.10472 12.33 6.90655 10.7737C8.53829 9.36597 9.84706 7.62269 10.7435 5.66291L10.7435 5.6629Z" id="Shape" fill="#BFAFFB" stroke="#FFFFFF" stroke-width="1.5" stroke-linecap="round" stroke-linejoin="round" />
          <path d="M10.7435 4.71898L10.7435 5.66287C9.84612 7.61989 8.53741 9.36048 6.90655 10.766C5.10548 12.325 2.95891 13.4325 0.644611 13.9968C0.23142 13.5681 0.000381656 12.996 0 12.4006L0 4.72665C4.57402e-08 4.30283 0.343574 3.95926 0.767393 3.95926L9.97611 3.95926C10.397 3.95924 10.7393 4.29815 10.7435 4.71898L10.7435 4.71898Z" id="Shape" fill="none" stroke="#FFFFFF" stroke-width="1.5" stroke-linecap="round" stroke-linejoin="round" />
          <path d="M7.70013 0C8.14191 0 8.49994 0.358025 8.49994 0.799805L8.49994 1.4002C8.49994 1.84198 8.14191 2.2 7.70013 2.2L2.79974 2.2C2.35796 2.2 1.99994 1.84198 1.99994 1.4002L1.99994 0.799805C1.99994 0.358025 2.35796 0 2.79974 0L7.70013 0Z" id="Rectangle" fill="#C3B2FF" stroke="none" />
        </g>
      </g>
    </g>
    <g id="Velvet" clip-path="url(#clip_2)" transform="translate(20.999939 2)">
      <g id="Velvet" fill="#FFFFFF">
        <path d="M7.668 15.66L11.952 3.6L9.036 3.6L6.966 10.098L6.066 13.95L5.184 10.098L3.114 3.6L0.09 3.6L4.374 15.66L7.668 15.66ZM16.11 15.84C18.09 15.84 19.278 14.976 19.944 14.022L18.378 12.456C18.054 13.212 17.388 13.752 16.146 13.752C14.994 13.752 14.166 13.158 14.004 11.916L20.016 11.916C20.07 11.718 20.106 11.214 20.106 10.836C20.106 8.532 18.702 6.66 15.894 6.66C13.302 6.66 11.592 8.532 11.592 11.25C11.592 13.968 13.302 15.84 16.11 15.84ZM15.912 8.64C17.064 8.64 17.694 9.27 17.784 10.44L14.004 10.44C14.13 9.252 14.814 8.64 15.912 8.64ZM24.192 15.66L24.192 3.6L21.618 3.6L21.618 15.66L24.192 15.66ZM31.554 15.66L34.65 6.84L31.842 6.84L30.618 11.07L29.952 14.166L29.268 11.07L28.044 6.84L25.2 6.84L28.296 15.66L31.554 15.66ZM39.24 15.84C41.22 15.84 42.408 14.976 43.074 14.022L41.508 12.456C41.184 13.212 40.518 13.752 39.276 13.752C38.124 13.752 37.296 13.158 37.134 11.916L43.146 11.916C43.2 11.718 43.236 11.214 43.236 10.836C43.236 8.532 41.832 6.66 39.024 6.66C36.432 6.66 34.722 8.532 34.722 11.25C34.722 13.968 36.432 15.84 39.24 15.84ZM39.042 8.64C40.194 8.64 40.824 9.27 40.914 10.44L37.134 10.44C37.26 9.252 37.944 8.64 39.042 8.64ZM48.024 15.84C49.374 15.84 50.274 15.21 50.652 14.724L49.914 12.618C49.644 13.104 49.158 13.554 48.6 13.554C48.096 13.554 47.736 13.302 47.736 12.582L47.736 8.802L50.184 8.802L50.184 6.84L47.736 6.84L47.736 4.446L45.162 5.796L45.162 6.84L43.848 6.84L43.848 8.802L45.162 8.802L45.162 13.05C45.162 14.688 46.08 15.84 48.024 15.84Z" />
      </g>
    </g>
  </g>
</svg>